<svg xmlns="http://www.w3.org/2000/svg" xmlns:xlink="http://www.w3.org/1999/xlink" fill="green" version="1.1" width="0" height="0" viewBox="0 0 100 167" preserveAspectRatio="xMidYMid meet"><path xmlns="http://www.w3.org/2000/svg"  d="M4.6077 166.1505c-1.6837-1.5367-3.187-2.6893-3.5478-5.2292-.1203-.8538-.3608-4.4609-.2806-4.9518-.1604-3.7778-.441-6.1897-.1403-10.5865.3607-5.3573 3.227-12.2514 3.227-12.2514s21.5678-43.9896 24.4542-50.094c2.8663-6.1256-3.588-5.7414-3.588-5.7414s-2.0445.064-4.8707.1067c0 .0427.02.0854.02.0854s-5.5723-.1921-5.0311 14.343c.3407 9.3486.6815 13.2332-4.2494 13.0197-4.931-.2347-2.8864-7.449-3.4677-18.569-.2606-4.9518-2.686-8.3242-3.9287-9.7542-2.766-1.7929-1.824-6.1257-1.824-6.1257s0-25.2497.3608-31.3754C2.1022 32.901 5.69 34.0536 5.69 34.0536s24.0733 0 36.3003-.3842 15.0934-9.1779 15.0934-9.1779l8.9798-17.9928C69.2908-.1393 73.1393.8852 73.1393.8852S86.5489.7572 93.384.7572c6.835 0 5.873 3.0522 5.873 3.0522s.3608 12.8916.2405 21.4292c-.0802 5.0584-1.4232 9.3272-2.245 11.483a.9621 1.0245 0 0 1-.1002.3628c-3.4075 6.702-3.648 12.8917-3.8886 18.7399-.2405 5.8695.1203 8.004 1.4432 14.7912 1.9242 9.9463 1.1024 18.5265-4.7906 17.3526-8.8596-1.7929-3.3474-17.3526-2.6258-20.6608.6414-2.9241-1.343-7.257-6.4543 1.6648-.7416 1.4514-1.4632 2.8387-2.1648 4.2047v.0213c-3.0066 5.8483-5.4921 10.6293-6.4542 12.4862-3.0067 5.6988.5612 8.5375.5612 8.5375s13.8105-.875 20.6256-.4909c6.8351.3842 6.1135 4.2047 6.1135 4.2047s.3608 27.1707-.3608 32.528c-.02.1494-.04.2775-.0801.427-.2005 5.6347-4.951 8.7082-8.9197 9.4125-4.3096.7684-1.2027 6.8941-6.2338 9.6901-5.0312 2.796-8.619-5.3573-10.0623-8.1533-1.4432-2.796-2.6258-4.845-5.5122-2.3051-2.8663 2.5612-3.8485 5.592-1.4632 13.2545 1.7438 5.592.942 14.215-6.0133 13.9589-6.2338-.2348-6.8552-7.1716-4.9109-13.3826 1.0824-3.479.5412-6.4032.5412-6.4032.0602-.1494 1.0824-3.7778-3.2672-5.656-1.4031-.5977-2.8864-.619-4.5701-.4056-2.285 1.1312-4.049 3.3083-5.2516 5.2505-3.3073 6.9795-3.5278 7.8546-5.7728 11.547-2.5256 4.1621-8.3785 8.2175-8.3785 8.2175s-7.6169-.3629-10.1825-.3629c-3.0468.064-8.9599-.5763-9.5612.5763H4.6077Z" ></path></svg>