<svg xmlns:xlink="http://www.w3.org/1999/xlink" xmlns="http://www.w3.org/2000/svg" fill="none" viewBox="0 0 85 26"><path fill="currentColor" d="m13.1325 3.7583-2.8987 5.4783s-.226.452-.226.9972c0 .5452.0465 1.1336.0465 1.1336s-.2726.3623.7712.3158c0 0 .3657-.0998.4521.1795.0864.2792.2028.339.8377.339.635 0 .635 1.2233.5651 1.7419-.0665.5219-.2028 1.5856-.1795 2.061.0233.4753.2493.8144.8842.748.635-.0666.6748-.4621.6117-1.2234-.0632-.7612-.4089-2.8754.1595-3.3973.5651-.5219.8843.3624.8843.3624s.3623.678.974.565c.6116-.113.4088-.5218.8144-1.0171.4088-.4987.4753-.4089 1.0172-.7912.5418-.3856 1.9911-1.7219 2.3335-2.8754.3391-1.1535.9042-4.122-.9274-6.1131 0 0-1.2-1.4726-3.4405-1.8117 0 0-.5419-.1795-.861.2493-.3158.4288-1.0172 1.835-1.0172 1.835s-.565.678.0466.678c.6116 0 1.5158.1596 2.0144.3624.4986.2028 1.6987 1.2 1.1768 3.1713-.522 1.9712-2.0145 2.0144-2.0145 2.0144l-1.2233.0665s-.4986 0-.4986-.339c0-.3391.0465-4.4844.0465-4.4844s.0798-.585-.349-.246zM29.494.4242l-7.486-.03s-.4522-.1196-.5752.7846c-.123.9042-.0299 9.9625-.0299 9.9625s-.0897.635.605.635c.6948 0 7.516-.0599 7.516-.0599s.5418-.0598.605-.452c.0631-.3923.0897-2.2639.0897-2.2639s.1197-.3922-1.1468-.3922-3.8926.03-3.8926.03-.2427 0-.2726-.2427c-.03-.2427.03-.635.03-.635s.1495-.2426.482-.2127c.3323.0299 3.6532-.0898 3.6532-.0898s.4222 0 .5119-.3623c.0898-.3623.0898-2.0543.0898-2.0543s.1495-.3923-.512-.4222c-.6615-.03-3.9557.03-3.9557.03s-.3624-.1497-.3923-.3624c-.0299-.2128 0-.5751 0-.5751s.0598-.3923.512-.4222c.452-.0299 4.2549.03 4.2549.03s.4221.0299.5119-.2427c.0897-.2726.1197-2.5064.1197-2.5064s.0665-.0865-.718-.1463z"></path><path fill="currentColor" d="M22.008 11.7762s.6017.0698.8144.3325c.3391.4155-.103 1.5557 0 1.9778.1895.7779 1.1768.8145 1.2466.1363.0532-.5252-.4587-2.174.2028-2.3834.6615-.2094 1.0272-.3623 1.0272-.6948 0-.3324-3.3209-.0598-3.3209-.0598s-.03.1762.03.6914zm39.1222 0s.6017.0698.8144.3325c.339.4155-.103 1.5557 0 1.9778.1895.7779 1.1768.8145 1.2466.1363.0531-.5252-.4588-2.174.2027-2.3834.6615-.2094 1.0272-.3623 1.0272-.6948 0-.3324-3.3208-.0598-3.3208-.0598s-.03.1762.0299.6914zm-29.3824 5.4982s.6017.0698.8145.3324c.339.4155-.103 1.5557 0 1.978.1894.7778 1.1767.8143 1.2465.1362.0532-.5252-.4587-2.174.2028-2.3834.6615-.2095 1.0272-.3624 1.0272-.6948s-3.3209-.0598-3.3209-.0598-.0299.1795.03.6914zM33.9318.3943 31.6082.3344s-.4221.0898-.3922.7247c.0299.635.1496 2.7757.1496 3.4106 0 .635.5418.5418.605.3025.0631-.2393.2127-.0598.2725.575.0599.635 1.0272 4.9199 1.1469 5.4351.1197.5153.1496.8443.6947.9374.5452.093 2.204-.482 2.204.1795 0 .6649 0 1.1302-.1496 1.7519-.153.6216-.8444 2.6859.2726 2.656 1.1169-.03.482-1.8117.5418-2.5364.0598-.7246.2127-1.6587.482-2.3535.2726-.6947 2.656-5.0095 2.9884-5.7043.3324-.6947 2.656-4.5275 2.6261-4.7402-.0299-.2128.03-.4222-.7246-.482-.7546-.0599-2.2638-.0599-2.2638-.0599s-.3324-.1795-.6648.482c-.3325.6649-2.9586 5.6146-2.9586 5.6146s-.3623.5119-.5119-.03C35.7767 5.9557 34.989 2.5717 34.959 2L34.7163.9428c0-.0067.2094-.6084-.7845-.5485zM44.7387.3344s-.8443-.1196-.8443 1.0272v9.4805s.1795.7845.605.9042c.4254.1197.2426 2.2339.1795 3.0184-.0632.7845-.1197 2.174.8443 2.0543.964-.1197.6648-2.4765.7247-3.5004.0598-1.0238.1795-1.569.4221-1.6288.2427-.0598.3624.1795.6649-.6648.3025-.8444.0598-9.178.0598-9.178s.1496-1.569-.482-1.5092h-2.174ZM60.103 10.8388c-.1197-.512-2.1142-8.8755-2.1142-8.8755l-.2426-1.117s.0299-.5119-.7247-.5418c-.7546-.0299-2.5363 0-2.5363 0s-.5419.03-.7546.482c-.2128.4521-2.7159 4.1951-3.1713 4.6505-.452.4521 0 .8444.2427.7546.2426-.0897.1795.0599-.3923 1.0272-.575.9673-2.2338 3.6233-2.2039 4.0156.03.3922.2726.452.8443.605.5751.1496.9973 1.0272.8145 1.9613-.1795.9374-.635 2.0543-.1795 2.5662.452.512 1.0271.482 1.2964.2128.2726-.2726.512-1.087.2726-1.9912-.2394-.9042-.512-2.1441.0299-2.656.5418-.512.8443-1.3596.8443-1.3596s-.0897-.3923.512-.4521c.605-.0598 3.4405-.0898 3.4405-.0898s.2725.0898.3324.5751c.0598.482.0598 1.1469.605 1.1469.5451 0 1.2964-.3025 1.539-.03.2427.2726.06.9674.6948.7546.635-.2127.502-.4654.7546-.605.2593-.1462.2194-.5219.0964-1.0338zM55.848 7.518c-.0897.1795-2.1141.0897-2.3834 0-.2725-.0898 1.1768-2.656 1.3895-2.7757.2128-.1197.3923.1496.3923.1496.2094.3623.6914 2.4466.6017 2.626z"></path><path fill="currentColor" d="M61.5823.3178s-.4521.0466-.5884.9042c-.1363.861-.226 6.3392-.226 6.9276 0 .5883.0465 3.0781.0465 3.0781s-.0898.5884.6349.635c.7247.0465 2.3535-.0466 2.3535-.0466s.6781-.0465.6781-.452c0-.4056-.1795-4.4844-.1795-4.4844s.0466-.8144.5884-.1795c.5419.635 2.3103 3.4405 2.5364 3.7597.226.3158.6349 1.4028 1.0404 1.539.4089.1363.9507.409.9042 1.1336-.0465.7247-.9042 3.3042-.2726 3.8926.635.5884 1.4494.2726 1.5856-.2726.1363-.5418-.1362-2.3103-.226-2.9884-.0898-.6781-.3623-1.1768.1795-1.4959.5418-.3158.8144.0166.8743-.831.0432-.5884.1063-.9807-.1197-2.7458 0 0-.2427-1.8715.3922-1.539.3624.1894.286-1.0406.1496-1.722-.1363-.6815-.482-3.8029-.482-4.2117 0-.4089.1795-.7247-.452-.8145-.6317-.0897-2.2638-.0465-2.2638-.0465s-.5419-.226-.635.4986c-.093.7247-.0465 3.4405-.0465 3.4405s.226 1.4494-.3158.9508C67.1968 4.7489 64.614.7633 64.614.7633s-.0465-.2726-.7247-.409c-.6748-.1262-1.9878-.0365-2.307-.0365zM72.572.3644s-.2726.0598-.3025.3324c-.03.2726-.0599 2.2637-.0599 2.2637s-.0299.3923.3624.3923c.3922 0 2.3535-.03 2.3535-.03s.6349.03.605.4522c-.03.4221-.512 3.743-.3623 4.3779.1495.635.3025.8144.2725 1.4194-.0299.605-.3623 1.9314.1496 2.1441.512.2128.7546.452.6649 1.1768-.0898.7246-.3923 2.2637-.0599 2.9286.3324.6648 1.0571.6947 1.2067.0299.1496-.6649-.2726-2.3236-.2427-2.9885.03-.6648.482-1.4493.635-1.692.1495-.2426.8808-1.2631.9374-1.7518.0565-.4886.0598-.9673.0598-1.5092 0-.5418 0-3.0781-.03-3.3806-.0298-.3025-.2426-1.1469.3325-1.2366.575-.0898 2.021 0 2.021 0s.3325.0897.635-.03c.3025-.1196 1.2366-2.0842 1.2366-2.0842s.2726-.7845-.1496-.8144c-.4222-.03-4.378-.0599-5.1624-.0599h-4.1353s-.8177-.123-.9673.0599zM28.6763 25.6247c-.4654-.0166-.5717-.6282-.5717-.6282l-.03-1.3596s.0898-5.465.0599-6.0666c-.03-.605-.3025-.3624-.3025-.3624h-2.5065c-.3623 0-.4221-.4221-.4221-.5418 0-.1197.0299-1.8715.0897-2.1441.0598-.2726.512-.2726.512-.2726.3623-.0897 9.055.0898 9.8727.0898.8144 0 .512.482.512.482s-.7546 1.8715-1.0571 2.2039c-.3025.3324-.9674.3623-.9674.3623s-1.057-.0598-1.7817 0c-.7247.0599-.5419.3923-.5419.3923s.0599 2.9585.03 4.1353c-.03 1.1767-.3025 1.692-.3025 1.692s-.8444 1.3296-1.0571 1.8715c.0067 0-.2693.1928-1.5358.1462zm-26.0615.349c1.4793-.6648 2.9286-.1495 3.0483-.605.1197-.452.2526-.555.4022-.974.1496-.4188.1795-.3323.6948-.3622.5152-.03 3.108.0598 3.108.0598s.3026-.03.3923.452c.0898.482.2526.758 1.0006.8544 1.2831.1662 2.0078.0598 2.0078.0598.4222-.2127.6449-.0997.585-.6449-.0598-.5418-2.021-9.2378-2.021-9.2378s-.2128-1.2665-.9042-1.2965c-.6915-.0299-2.7458 0-2.7458 0s-.512-.0598-.6648.3325L2.023 25.2092s-.4321.6117.1695.7047zm6.9542-4.84c-.1496.3026-1.692.1796-2.1142.0599-.4222-.1197 1.1468-2.4167 1.4194-2.7458.2726-.3324.4222.605.4222.605.2427.2693.4255 1.7785.2726 2.081zm8.061 4.4977c.532-.0266.5752-.1795.5752-.4222 0-.2427 0-2.2937.0598-2.4466.0598-.1496.0598-.3956.3923-.4222.3324-.0266.8144-.0598 1.1468.3624.3324.4222 1.1468 2.2937 1.1468 2.2937s.2128.6648.7845.6648h2.2638s.8144.0598.8144-.1496c0-.2127-1.1169-2.3834-1.1169-2.3834s-.9973-1.3297-.6948-1.5092 1.3895-1.539 1.4195-2.9286c.0299-1.3895-.3324-3.6233-2.5962-4.225-2.2638-.605-6.4589-.2726-6.4589-.2726s-.5119-.2127-.605.7247c-.0897.9374-.0598 9.8728-.0598 9.8728s-.1197.7246.3923.7845c0-.0033 1.5424.1063 2.5363.0565zm2.3835-5.8273c-.4221.0598-1.539-.03-1.8715-.0897-.3324-.0599-.1197-1.8117-.0299-2.2937.0897-.482.3025-.3923.3025-.3923 2.5962-.1795 2.656.8144 2.656 1.569 0 .7546-.635 1.1469-1.057 1.2067z"></path><path fill="currentColor" d="M17.5802 17.3243s1.4427-.1396 1.5092.452c.0465.409-.1496.9973.512.9973.5118 0 .3922-.7546.3323-.9673-.0598-.2128-.1196-.3923.3624-.482.482-.0898-1.7818-1.8416-1.9014-1.7818-.1197.0598-.8145 1.7818-.8145 1.7818zm61.341-14.0845s1.6354.0066 1.569 1.9313c-.0133.4089-.1696 1.4028.4952 1.4028.512 0 .4122-1.1601.349-1.3729-.0597-.2127-.1196-1.2033.4123-1.9413.2859-.3989-1.117-2.2505-1.2366-2.1873-.1197.0632-1.589 2.1674-1.589 2.1674z"></path></svg>